<?xml version="1.0" encoding="UTF-8"?>
<svg xmlns="http://www.w3.org/2000/svg" viewBox="0 0 2400 2400">
  <defs>
    <style>
      .cls-1 {
        fill: #fff;
      }

      .cls-2 {
        fill: #8e00ff;
      }
    </style>
  </defs>
  <rect class="cls-2" width="2400" height="2400"/>
  <g id="Layer_1" data-name="Layer 1">
    <rect class="cls-2" width="2400" height="2400"/>
    <g>
      <path class="cls-1" d="M1101.9,1551.07c-157.73-63.44-253.09-200.06-261.75-370.11-1.37-27,3.24-60.4-.02-86.03-.39-3.06-1.21-6.43-4.38-3.26-5.17,24.62-11.85,49.17-15.15,74.19-14.74,111.65,6.68,212.43,79.15,299.55,26.31,31.63,59.29,56.13,90.35,82.75-55.87,12.59-113.41,18.77-170.9,15.44-36.99-2.14-73.68-11.82-110.57-15.15-2.47-.22-7.93-2.03-7.42,1.92,16.74,4.89,32.54,12.6,49.01,18.27,87.1,30,173.67,37.51,264.6,20.81,18.5-3.4,43.53-19.2,53.59.63,14.53,28.64,25.03,78.4,36.92,110.84,10.47,28.56,22.28,56.84,34.35,84.75,4.15,9.61,16.44,27.33,15.44,36.51-27.91,93.1-53.03,187.29-85.02,279.08-5.82,16.69-19.46,64.77-32.91,72.95-7.17,4.36-23.88,6.43-32.66,7.04-127.97,8.83-265.93-6.88-394.95,0-21.27-1.58-34.21-6.69-36.38-29.78-6.23-66.22.66-152.98,2.38-220.53,3.41-134.12,8.72-268.74,30.98-401.48-67.61-96.29-95.94-201.21-79.27-319.46,25.63-181.91,156.46-320.87,281.45-444.13,211.84-43.51,443.54-73.08,658.15-32.96,11.21,2.1,49.72,8.53,56.89,13.68,3.1,2.23,5.25,5.6,6.11,9.33,18.22,95.11,25.77,195.46,47.94,289.49,20.52,87.01,81.19,181.46,119.91,263.83,117.38,249.71,174.84,473.12,179.06,751.63.45,29.4,2,70.87-2.44,99.22-2.37,15.17-22.91,20.97-36.17,21.17-113.88-6.13-235.7,7.82-348.64,0-41.35-2.87-49.63-20.25-73.73-49.77-92.03-112.73-206.27-293.56-259.75-428.34-19.86-50.07-32.87-103.02-54.15-152.05Z"/>
      <path class="cls-1" d="M844.54,703.5c-.8-3.32.76-5.18,2.05-7.86,6.81-14.16,17.68-27.82,24.79-43.58,60.16-133.4,30.21-289.02-37.46-413.35-2.52-12.17,8.49-23.14,20.43-22.71l703.78,2.16c8.59,3.15,12.17,12.38,12.15,21.11-.04,23.19-4.49,55.37-6.81,79.37-10.8,111.44-40.83,230.74-37.58,341.96.21,7.23,5.8,29.08.22,33.15-18.47-2.75-36.41-8.18-54.84-11.61-140.04-26.01-283.57-23.37-424.94-9.5-67.81,6.65-134.82,19.17-201.8,30.85Z"/>
    </g>
  </g>
</svg>